<?xml version="1.0" standalone="no"?>
<!DOCTYPE svg PUBLIC "-//W3C//DTD SVG 20010904//EN"
 "http://www.w3.org/TR/2001/REC-SVG-20010904/DTD/svg10.dtd">
<svg version="1.0" xmlns="http://www.w3.org/2000/svg"
 width="1000.000000pt" height="1200.000000pt" viewBox="0 0 1000.000000 1200.000000"
 preserveAspectRatio="xMidYMid meet">

<g transform="translate(0.000000,1200.000000) scale(0.100000,-0.100000)"
fill="#000000" stroke="none">
<path d="M8340 7309 c-32 -13 -68 -47 -85 -80 -46 -87 -70 -434 -62 -886 l6
-322 -28 -38 c-39 -53 -70 -79 -113 -98 -64 -26 -68 -22 -43 43 36 88 55 200
55 322 0 231 -63 395 -172 451 -95 48 -205 30 -286 -47 -51 -49 -52 -50 -52
-30 0 50 -110 114 -175 102 l-35 -7 0 -87 c0 -48 -5 -199 -10 -336 -9 -244
-10 -250 -37 -295 -52 -90 -111 -125 -143 -86 -21 25 -22 200 -2 425 16 177
17 220 7 246 -37 91 -225 160 -225 83 0 -18 -5 -17 -41 15 -52 44 -116 66
-190 66 -154 0 -269 -105 -324 -295 -30 -105 -30 -105 -73 -105 -46 0 -103 34
-115 70 -7 20 -3 36 24 79 55 88 41 163 -42 222 -104 74 -198 -7 -204 -178 -2
-39 -8 -80 -14 -90 -6 -10 -11 -13 -11 -8 -3 55 -24 153 -40 184 -36 72 -101
108 -176 99 l-29 -3 -3 -330 -2 -329 -36 -37 c-20 -21 -56 -52 -81 -69 l-44
-32 5 139 c12 307 19 499 17 522 -5 88 -231 167 -231 81 0 -28 -12 -25 -46 11
-71 77 -204 96 -308 45 -100 -49 -180 -163 -214 -307 -16 -66 -19 -70 -59 -89
-66 -31 -83 -27 -83 18 0 57 -26 168 -54 227 -71 156 -245 229 -419 177 -87
-26 -137 -61 -181 -125 -84 -124 -117 -360 -74 -533 8 -36 7 -48 -16 -91 -35
-71 -86 -113 -136 -113 -53 0 -70 28 -83 136 -11 87 0 321 24 505 l11 87 61 7
c114 12 160 51 139 114 -9 26 -9 26 -98 23 l-89 -4 -1 90 c-1 166 -79 292
-181 292 -66 0 -83 -50 -83 -242 l0 -138 -27 0 c-50 0 -102 -20 -108 -41 -10
-29 4 -78 25 -89 10 -6 39 -10 65 -10 l46 0 -5 -47 c-3 -27 -8 -149 -11 -273
-7 -255 -12 -275 -85 -354 -46 -50 -82 -60 -99 -27 -21 39 -23 134 -6 347 18
238 16 271 -28 335 -46 68 -157 131 -195 110 -9 -5 -24 -51 -38 -122 -49 -236
-141 -527 -185 -583 -25 -32 -43 -33 -63 -5 -13 19 -14 60 -9 283 3 144 3 278
-1 298 -14 75 -98 139 -185 142 l-46 1 -8 -135 c-4 -74 -9 -234 -10 -355 -4
-245 -6 -254 -73 -296 -43 -26 -78 -19 -98 19 -15 30 -48 174 -66 292 -6 41
-13 85 -16 98 -3 17 0 22 15 22 47 0 121 23 144 44 31 29 51 94 35 113 -7 9
-41 13 -114 13 l-103 0 -5 33 c-3 17 -22 156 -41 307 -20 151 -41 293 -48 314
-10 33 -21 44 -62 65 -42 21 -64 25 -135 26 -197 0 -242 -66 -360 -529 -32
-125 -61 -230 -63 -233 -3 -2 -35 -11 -71 -18 -142 -30 -242 -99 -285 -196
-90 -203 -8 -598 140 -674 131 -68 216 67 337 541 57 219 38 201 209 203 l101
1 6 -27 c3 -16 13 -71 21 -123 60 -359 145 -478 347 -488 69 -4 82 -1 128 24
29 16 69 47 90 71 l37 42 47 -44 c47 -43 116 -75 165 -75 86 0 159 107 221
324 l29 101 1 -100 c1 -144 27 -230 87 -287 93 -89 257 -73 342 32 l32 40 32
-42 c48 -62 111 -91 200 -91 106 0 186 40 246 123 l28 39 21 -29 c56 -75 184
-130 304 -130 101 0 144 16 204 75 55 54 83 115 111 237 15 66 15 66 58 77 23
6 49 13 56 16 11 4 17 -11 26 -62 18 -115 49 -180 117 -249 50 -51 71 -65 118
-79 78 -22 122 -10 177 50 46 50 70 98 112 225 l28 85 0 -126 c1 -69 -2 -146
-5 -171 l-6 -44 -142 -71 c-77 -39 -159 -84 -182 -101 -52 -38 -78 -91 -71
-145 11 -83 99 -130 242 -131 136 0 244 50 304 141 33 49 81 186 81 229 0 19
15 33 73 70 39 25 87 60 105 77 17 17 32 26 32 19 0 -19 68 -89 99 -101 15 -7
48 -11 72 -9 l44 3 0 180 c0 166 2 185 24 239 13 32 36 72 51 89 l27 31 33
-28 c59 -49 110 -69 193 -74 l77 -5 0 -37 c0 -111 44 -231 112 -306 64 -69
117 -97 185 -98 43 -1 57 4 90 30 52 41 98 121 133 229 l29 90 1 -50 c1 -100
37 -192 93 -242 82 -72 195 -82 285 -26 l49 31 0 -142 c0 -82 5 -156 12 -177
21 -64 95 -119 161 -119 54 0 57 5 48 73 -8 54 -3 306 7 315 2 2 14 -4 28 -12
36 -24 151 -46 244 -46 155 0 298 41 374 108 l36 31 24 -25 c31 -34 95 -66
122 -62 19 3 24 16 43 110 27 130 63 257 116 403 46 127 115 264 136 272 29
12 33 -20 25 -207 -13 -302 -10 -378 19 -441 34 -75 74 -118 133 -145 96 -45
195 -25 274 56 87 90 125 238 72 281 -27 22 -51 25 -51 7 -1 -26 -56 -119 -94
-158 -46 -47 -92 -55 -101 -17 -3 12 -5 164 -3 338 l3 315 -28 43 c-53 80
-174 133 -254 112 -80 -22 -118 -75 -185 -261 l-38 -105 6 80 c5 69 12 93 54
180 107 217 142 391 104 511 -14 45 -31 72 -74 116 -69 71 -135 93 -200 67z
m141 -250 c16 -31 4 -105 -38 -232 -20 -59 -37 -106 -39 -104 -6 5 14 321 22
340 9 24 41 21 55 -4z m-6621 -264 c11 -116 23 -220 26 -232 6 -21 3 -22 -95
-25 -73 -2 -101 0 -101 9 0 38 89 397 118 473 l16 44 8 -29 c3 -17 16 -125 28
-240z m3386 -204 c55 -33 60 -64 30 -185 -69 -274 -153 -456 -211 -456 -9 0
-23 16 -32 38 -13 30 -14 62 -10 167 10 228 68 396 153 440 36 19 33 19 70 -4z
m-915 -13 c48 -32 86 -115 95 -205 l7 -73 -29 0 c-54 0 -128 44 -162 95 -50
76 -54 143 -12 185 26 26 59 25 101 -2z m2536 0 c54 -59 52 -88 -19 -308 -50
-154 -97 -256 -137 -294 -59 -57 -81 -16 -81 152 0 260 83 472 184 472 21 0
40 -8 53 -22z m902 -17 c26 -26 35 -109 27 -240 -9 -130 -40 -315 -62 -370
-25 -63 -87 -87 -149 -59 -22 10 -25 17 -25 63 0 76 18 299 31 377 17 106 80
223 129 241 25 9 29 8 49 -12z m-6388 -412 c-58 -203 -76 -249 -96 -249 -28 0
-40 43 -39 145 0 165 32 235 124 272 30 12 56 18 58 13 2 -4 -20 -86 -47 -181z
m2842 23 c26 -12 76 -29 110 -38 34 -9 63 -17 64 -18 2 -2 -8 -36 -22 -76 -65
-192 -153 -187 -200 12 -16 67 -20 152 -7 146 4 -2 29 -14 55 -26z m1020 -625
c-39 -67 -134 -101 -141 -51 -2 17 11 29 75 62 43 22 80 36 81 31 2 -5 -5 -24
-15 -42z"/>
</g>
</svg>
